<svg width="790" height="100" viewBox="0 0 790 100" fill="none" xmlns="http://www.w3.org/2000/svg">
<path d="M27.7884 91.0909V0.181813H33.6122V91.0909H27.7884ZM41.8153 31.0767C41.5786 28.4725 40.5251 26.4484 38.6548 25.0043C36.8082 23.5365 34.1686 22.8026 30.7358 22.8026C28.4631 22.8026 26.5691 23.0985 25.054 23.6903C23.5388 24.2822 22.4025 25.099 21.6449 26.1406C20.8873 27.1586 20.4967 28.3305 20.473 29.6562C20.4257 30.7453 20.6387 31.7041 21.1122 32.5327C21.6094 33.3613 22.3196 34.0952 23.2429 34.7344C24.1899 35.3499 25.3262 35.8944 26.652 36.3679C27.9777 36.8414 29.4692 37.2557 31.1264 37.6108L37.3764 39.0312C40.9749 39.8125 44.1473 40.8542 46.8935 42.1562C49.6634 43.4583 51.9834 45.009 53.8537 46.8082C55.7476 48.6075 57.1799 50.679 58.1506 53.0227C59.1212 55.3665 59.6184 57.9943 59.642 60.9062C59.6184 65.4991 58.4583 69.4408 56.1619 72.7315C53.8655 76.0223 50.563 78.5436 46.2543 80.2955C41.9692 82.0473 36.7964 82.9233 30.7358 82.9233C24.6515 82.9233 19.3485 82.0118 14.8267 80.1889C10.3049 78.366 6.7893 75.5961 4.27983 71.8793C1.77036 68.1624 0.480114 63.4631 0.409091 57.7812H17.2415C17.3835 60.125 18.0109 62.0781 19.1236 63.6406C20.2363 65.2031 21.7633 66.3868 23.7045 67.1918C25.6695 67.9967 27.9422 68.3991 30.5227 68.3991C32.8902 68.3991 34.9025 68.0795 36.5597 67.4403C38.2405 66.8011 39.5308 65.9134 40.4304 64.777C41.33 63.6406 41.7917 62.3385 41.8153 60.8707C41.7917 59.4976 41.3655 58.3258 40.5369 57.3551C39.7083 56.3608 38.4299 55.5085 36.7017 54.7983C34.9972 54.0644 32.8191 53.3897 30.1676 52.7741L22.5682 50.9986C16.2708 49.5544 11.3111 47.2225 7.68892 44.0028C4.06676 40.7595 2.26752 36.3797 2.29119 30.8636C2.26752 26.3655 3.47491 22.4238 5.91335 19.0384C8.3518 15.6529 11.7254 13.0133 16.0341 11.1193C20.3428 9.22538 25.2552 8.27841 30.7713 8.27841C36.4058 8.27841 41.2945 9.23721 45.4375 11.1548C49.6042 13.0488 52.8357 15.7121 55.1321 19.1449C57.4285 22.5777 58.6004 26.5549 58.6477 31.0767H41.8153ZM102.007 9.27273V82H84.4645V25.679H84.0384L67.7741 35.6222V20.4233L85.7074 9.27273H102.007ZM148.163 83.7756C141.818 83.7756 136.35 82.2723 131.757 79.2656C127.164 76.2353 123.625 71.8911 121.139 66.233C118.653 60.5511 117.422 53.7211 117.446 45.7429C117.469 37.7647 118.712 30.9938 121.174 25.4304C123.66 19.8433 127.188 15.5937 131.757 12.6818C136.35 9.74621 141.818 8.27841 148.163 8.27841C154.508 8.27841 159.976 9.74621 164.569 12.6818C169.186 15.5937 172.737 19.8433 175.223 25.4304C177.708 31.0175 178.94 37.7884 178.916 45.7429C178.916 53.7448 177.673 60.5866 175.187 66.2685C172.701 71.9503 169.162 76.2945 164.569 79.3011C160 82.2841 154.531 83.7756 148.163 83.7756ZM148.163 69.3935C151.951 69.3935 155.017 67.464 157.36 63.6051C159.704 59.7225 160.864 53.7685 160.841 45.7429C160.841 40.4872 160.308 36.1548 159.243 32.7457C158.177 29.313 156.698 26.7562 154.804 25.0753C152.91 23.3944 150.696 22.554 148.163 22.554C144.399 22.554 141.357 24.4598 139.037 28.2713C136.717 32.0592 135.545 37.883 135.521 45.7429C135.497 51.0696 136.006 55.4848 137.048 58.9886C138.113 62.4924 139.605 65.1084 141.522 66.8366C143.44 68.5412 145.654 69.3935 148.163 69.3935ZM219.061 83.7756C212.717 83.7756 207.248 82.2723 202.655 79.2656C198.062 76.2353 194.523 71.8911 192.037 66.233C189.551 60.5511 188.32 53.7211 188.344 45.7429C188.368 37.7647 189.611 30.9938 192.073 25.4304C194.559 19.8433 198.086 15.5937 202.655 12.6818C207.248 9.74621 212.717 8.27841 219.061 8.27841C225.406 8.27841 230.875 9.74621 235.468 12.6818C240.084 15.5937 243.635 19.8433 246.121 25.4304C248.607 31.0175 249.838 37.7884 249.814 45.7429C249.814 53.7448 248.571 60.5866 246.086 66.2685C243.6 71.9503 240.06 76.2945 235.468 79.3011C230.899 82.2841 225.43 83.7756 219.061 83.7756ZM219.061 69.3935C222.849 69.3935 225.915 67.464 228.259 63.6051C230.603 59.7225 231.763 53.7685 231.739 45.7429C231.739 40.4872 231.206 36.1548 230.141 32.7457C229.076 29.313 227.596 26.7562 225.702 25.0753C223.808 23.3944 221.595 22.554 219.061 22.554C215.297 22.554 212.255 24.4598 209.935 28.2713C207.615 32.0592 206.443 37.883 206.419 45.7429C206.396 51.0696 206.905 55.4848 207.946 58.9886C209.012 62.4924 210.503 65.1084 212.421 66.8366C214.338 68.5412 216.552 69.3935 219.061 69.3935ZM274.619 72.0568L274.299 75.9986C274.015 79.2656 273.435 82.4498 272.559 85.5511C271.707 88.6761 270.796 91.4815 269.825 93.9673C268.854 96.4531 268.085 98.3826 267.517 99.7557H256.579C256.958 98.3826 257.467 96.4531 258.106 93.9673C258.769 91.4815 259.385 88.6761 259.953 85.5511C260.521 82.4261 260.841 79.2538 260.912 76.0341L260.983 72.0568H274.619ZM314.765 83.7756C308.42 83.7756 302.951 82.2723 298.358 79.2656C293.766 76.2353 290.226 71.8911 287.74 66.233C285.255 60.5511 284.024 53.7211 284.047 45.7429C284.071 37.7647 285.314 30.9938 287.776 25.4304C290.262 19.8433 293.789 15.5937 298.358 12.6818C302.951 9.74621 308.42 8.27841 314.765 8.27841C321.109 8.27841 326.578 9.74621 331.171 12.6818C335.787 15.5937 339.338 19.8433 341.824 25.4304C344.31 31.0175 345.541 37.7884 345.517 45.7429C345.517 53.7448 344.275 60.5866 341.789 66.2685C339.303 71.9503 335.764 76.2945 331.171 79.3011C326.602 82.2841 321.133 83.7756 314.765 83.7756ZM314.765 69.3935C318.552 69.3935 321.618 67.464 323.962 63.6051C326.306 59.7225 327.466 53.7685 327.442 45.7429C327.442 40.4872 326.909 36.1548 325.844 32.7457C324.779 29.313 323.299 26.7562 321.405 25.0753C319.511 23.3944 317.298 22.554 314.765 22.554C311 22.554 307.958 24.4598 305.638 28.2713C303.318 32.0592 302.146 37.883 302.123 45.7429C302.099 51.0696 302.608 55.4848 303.65 58.9886C304.715 62.4924 306.206 65.1084 308.124 66.8366C310.042 68.5412 312.255 69.3935 314.765 69.3935ZM385.663 83.7756C379.318 83.7756 373.85 82.2723 369.257 79.2656C364.664 76.2353 361.125 71.8911 358.639 66.233C356.153 60.5511 354.922 53.7211 354.946 45.7429C354.969 37.7647 356.212 30.9938 358.674 25.4304C361.16 19.8433 364.688 15.5937 369.257 12.6818C373.85 9.74621 379.318 8.27841 385.663 8.27841C392.008 8.27841 397.476 9.74621 402.069 12.6818C406.686 15.5937 410.237 19.8433 412.723 25.4304C415.208 31.0175 416.44 37.7884 416.416 45.7429C416.416 53.7448 415.173 60.5866 412.687 66.2685C410.201 71.9503 406.662 76.2945 402.069 79.3011C397.5 82.2841 392.031 83.7756 385.663 83.7756ZM385.663 69.3935C389.451 69.3935 392.517 67.464 394.86 63.6051C397.204 59.7225 398.364 53.7685 398.341 45.7429C398.341 40.4872 397.808 36.1548 396.743 32.7457C395.677 29.313 394.198 26.7562 392.304 25.0753C390.41 23.3944 388.196 22.554 385.663 22.554C381.899 22.554 378.857 24.4598 376.537 28.2713C374.217 32.0592 373.045 37.883 373.021 45.7429C372.997 51.0696 373.506 55.4848 374.548 58.9886C375.613 62.4924 377.105 65.1084 379.022 66.8366C380.94 68.5412 383.154 69.3935 385.663 69.3935ZM456.561 83.7756C450.217 83.7756 444.748 82.2723 440.155 79.2656C435.562 76.2353 432.023 71.8911 429.537 66.233C427.051 60.5511 425.82 53.7211 425.844 45.7429C425.868 37.7647 427.111 30.9938 429.573 25.4304C432.059 19.8433 435.586 15.5937 440.155 12.6818C444.748 9.74621 450.217 8.27841 456.561 8.27841C462.906 8.27841 468.375 9.74621 472.968 12.6818C477.584 15.5937 481.135 19.8433 483.621 25.4304C486.107 31.0175 487.338 37.7884 487.314 45.7429C487.314 53.7448 486.071 60.5866 483.586 66.2685C481.1 71.9503 477.56 76.2945 472.968 79.3011C468.399 82.2841 462.93 83.7756 456.561 83.7756ZM456.561 69.3935C460.349 69.3935 463.415 67.464 465.759 63.6051C468.103 59.7225 469.263 53.7685 469.239 45.7429C469.239 40.4872 468.706 36.1548 467.641 32.7457C466.576 29.313 465.096 26.7562 463.202 25.0753C461.308 23.3944 459.095 22.554 456.561 22.554C452.797 22.554 449.755 24.4598 447.435 28.2713C445.115 32.0592 443.943 37.883 443.919 45.7429C443.896 51.0696 444.405 55.4848 445.446 58.9886C446.512 62.4924 448.003 65.1084 449.921 66.8366C451.838 68.5412 454.052 69.3935 456.561 69.3935ZM512.119 72.0568L511.799 75.9986C511.515 79.2656 510.935 82.4498 510.059 85.5511C509.207 88.6761 508.296 91.4815 507.325 93.9673C506.354 96.4531 505.585 98.3826 505.017 99.7557H494.079C494.458 98.3826 494.967 96.4531 495.606 93.9673C496.269 91.4815 496.885 88.6761 497.453 85.5511C498.021 82.4261 498.341 79.2538 498.412 76.0341L498.483 72.0568H512.119ZM552.265 83.7756C545.92 83.7756 540.451 82.2723 535.858 79.2656C531.266 76.2353 527.726 71.8911 525.24 66.233C522.755 60.5511 521.524 53.7211 521.547 45.7429C521.571 37.7647 522.814 30.9938 525.276 25.4304C527.762 19.8433 531.289 15.5937 535.858 12.6818C540.451 9.74621 545.92 8.27841 552.265 8.27841C558.609 8.27841 564.078 9.74621 568.671 12.6818C573.287 15.5937 576.838 19.8433 579.324 25.4304C581.81 31.0175 583.041 37.7884 583.017 45.7429C583.017 53.7448 581.775 60.5866 579.289 66.2685C576.803 71.9503 573.264 76.2945 568.671 79.3011C564.102 82.2841 558.633 83.7756 552.265 83.7756ZM552.265 69.3935C556.052 69.3935 559.118 67.464 561.462 63.6051C563.806 59.7225 564.966 53.7685 564.942 45.7429C564.942 40.4872 564.409 36.1548 563.344 32.7457C562.279 29.313 560.799 26.7562 558.905 25.0753C557.011 23.3944 554.798 22.554 552.265 22.554C548.5 22.554 545.458 24.4598 543.138 28.2713C540.818 32.0592 539.646 37.883 539.623 45.7429C539.599 51.0696 540.108 55.4848 541.15 58.9886C542.215 62.4924 543.706 65.1084 545.624 66.8366C547.542 68.5412 549.755 69.3935 552.265 69.3935ZM623.163 83.7756C616.818 83.7756 611.35 82.2723 606.757 79.2656C602.164 76.2353 598.625 71.8911 596.139 66.233C593.653 60.5511 592.422 53.7211 592.446 45.7429C592.469 37.7647 593.712 30.9938 596.174 25.4304C598.66 19.8433 602.188 15.5937 606.757 12.6818C611.35 9.74621 616.818 8.27841 623.163 8.27841C629.508 8.27841 634.976 9.74621 639.569 12.6818C644.186 15.5937 647.737 19.8433 650.223 25.4304C652.708 31.0175 653.94 37.7884 653.916 45.7429C653.916 53.7448 652.673 60.5866 650.187 66.2685C647.701 71.9503 644.162 76.2945 639.569 79.3011C635 82.2841 629.531 83.7756 623.163 83.7756ZM623.163 69.3935C626.951 69.3935 630.017 67.464 632.36 63.6051C634.704 59.7225 635.864 53.7685 635.841 45.7429C635.841 40.4872 635.308 36.1548 634.243 32.7457C633.177 29.313 631.698 26.7562 629.804 25.0753C627.91 23.3944 625.696 22.554 623.163 22.554C619.399 22.554 616.357 24.4598 614.037 28.2713C611.717 32.0592 610.545 37.883 610.521 45.7429C610.497 51.0696 611.006 55.4848 612.048 58.9886C613.113 62.4924 614.605 65.1084 616.522 66.8366C618.44 68.5412 620.654 69.3935 623.163 69.3935ZM694.061 83.7756C687.717 83.7756 682.248 82.2723 677.655 79.2656C673.062 76.2353 669.523 71.8911 667.037 66.233C664.551 60.5511 663.32 53.7211 663.344 45.7429C663.368 37.7647 664.611 30.9938 667.073 25.4304C669.559 19.8433 673.086 15.5937 677.655 12.6818C682.248 9.74621 687.717 8.27841 694.061 8.27841C700.406 8.27841 705.875 9.74621 710.468 12.6818C715.084 15.5937 718.635 19.8433 721.121 25.4304C723.607 31.0175 724.838 37.7884 724.814 45.7429C724.814 53.7448 723.571 60.5866 721.086 66.2685C718.6 71.9503 715.06 76.2945 710.468 79.3011C705.899 82.2841 700.43 83.7756 694.061 83.7756ZM694.061 69.3935C697.849 69.3935 700.915 67.464 703.259 63.6051C705.603 59.7225 706.763 53.7685 706.739 45.7429C706.739 40.4872 706.206 36.1548 705.141 32.7457C704.076 29.313 702.596 26.7562 700.702 25.0753C698.808 23.3944 696.595 22.554 694.061 22.554C690.297 22.554 687.255 24.4598 684.935 28.2713C682.615 32.0592 681.443 37.883 681.419 45.7429C681.396 51.0696 681.905 55.4848 682.946 58.9886C684.012 62.4924 685.503 65.1084 687.421 66.8366C689.338 68.5412 691.552 69.3935 694.061 69.3935ZM756.686 71.4886V20.0682H770.997V71.4886H756.686ZM738.113 52.9517V38.6051H789.534V52.9517H738.113Z" fill="black"/>
</svg>
